<?xml version="1.0" ?><svg height="128" id="svg6449" version="1.1" viewBox="0 0 33.866666 33.866668" width="128" xmlns="http://www.w3.org/2000/svg" xmlns:cc="http://creativecommons.org/ns#" xmlns:dc="http://purl.org/dc/elements/1.1/" xmlns:inkscape="http://www.inkscape.org/namespaces/inkscape" xmlns:rdf="http://www.w3.org/1999/02/22-rdf-syntax-ns#" xmlns:sodipodi="http://sodipodi.sourceforge.net/DTD/sodipodi-0.dtd" xmlns:svg="http://www.w3.org/2000/svg"><defs id="defs6443"><clipPath clipPathUnits="userSpaceOnUse" id="clipPath5143"><ellipse cx="209.94763" cy="1573.1123" id="ellipse5145" rx="55.764446" ry="55.766594" style="display:inline;opacity:0.43500001;fill:#ffaaaa;fill-rule:evenodd;stroke:#333333;stroke-width:4.21448183;stroke-linecap:round;stroke-linejoin:round;stroke-miterlimit:4;stroke-dasharray:none;stroke-dashoffset:6.5999999;stroke-opacity:1"/></clipPath><clipPath clipPathUnits="userSpaceOnUse" id="clipPath11046"><ellipse cx="209.94763" cy="1380.6261" id="ellipse11048" rx="55.76445" ry="55.766594" style="display:inline;opacity:0.47600002;fill:#ffaaaa;fill-rule:evenodd;stroke:#333333;stroke-width:4.21448183;stroke-linecap:round;stroke-linejoin:round;stroke-miterlimit:4;stroke-dasharray:none;stroke-dashoffset:6.5999999;stroke-opacity:1"/></clipPath><clipPath clipPathUnits="userSpaceOnUse" id="clipPath8754"><ellipse cx="205.48343" cy="1298.3982" id="ellipse8756" rx="78.18396" ry="83.010139" style="display:inline;opacity:0.419;fill:#ffaaaa;fill-opacity:1;fill-rule:evenodd;stroke:#333333;stroke-width:4.21448183;stroke-linecap:round;stroke-linejoin:round;stroke-miterlimit:4;stroke-dasharray:none;stroke-dashoffset:6.5999999;stroke-opacity:1"/></clipPath><clipPath clipPathUnits="userSpaceOnUse" id="clipPath5060"><ellipse cx="68.499527" cy="1656.6876" id="ellipse5062" rx="71.409416" ry="71.223892" style="display:inline;opacity:0.45199998;fill:#ffe680;fill-rule:evenodd;stroke:#333333;stroke-width:4.21448183;stroke-linecap:round;stroke-linejoin:round;stroke-miterlimit:4;stroke-dasharray:none;stroke-dashoffset:6.5999999;stroke-opacity:1"/></clipPath><clipPath clipPathUnits="userSpaceOnUse" id="clipPath6174"><ellipse cx="128.2972" cy="1416.0679" id="ellipse6176" rx="55.76445" ry="55.766594" style="display:inline;opacity:0.572;fill:#ff9696;fill-opacity:1;fill-rule:evenodd;stroke:#333333;stroke-width:4.21448183;stroke-linecap:round;stroke-linejoin:round;stroke-miterlimit:4;stroke-dasharray:none;stroke-dashoffset:6.5999999;stroke-opacity:1"/></clipPath><clipPath clipPathUnits="userSpaceOnUse" id="clipPath5292"><ellipse cx="554.68481" cy="1234.8002" id="ellipse5294" rx="46.906162" ry="46.90797" style="display:inline;opacity:0.469;fill:#ffaaaa;fill-rule:evenodd;stroke:#333333;stroke-width:3.5625;stroke-linecap:round;stroke-linejoin:round;stroke-miterlimit:4;stroke-dasharray:none;stroke-dashoffset:6.5999999;stroke-opacity:1"/></clipPath><clipPath clipPathUnits="userSpaceOnUse" id="clipPath6537"><ellipse cx="2254.0229" cy="1364.222" id="ellipse6539" rx="114.45508" ry="114.4127" style="display:inline;fill:#d9ed88;fill-opacity:0.6;fill-rule:evenodd;stroke:#333333;stroke-width:9.00000095;stroke-linecap:round;stroke-linejoin:round;stroke-miterlimit:4;stroke-dasharray:none;stroke-dashoffset:6.5999999;stroke-opacity:1"/></clipPath></defs><g id="layer1" transform="translate(0,-263.13332)"><g id="g5638" transform="matrix(0.28222223,0,0,0.28222223,51.343941,-276.85387)"><g id="g11135" transform="translate(-331.87498,584.99997)"><ellipse cx="211.01534" cy="1440.1239" id="ellipse10928" rx="53.059589" ry="7.7109265" style="opacity:0.694;fill:#808080;fill-rule:evenodd;stroke:none;stroke-width:0.47325075px;stroke-linecap:butt;stroke-linejoin:miter;stroke-opacity:1"/><ellipse cx="209.94763" cy="1386.7198" id="ellipse10930" rx="55.76445" ry="55.766594" style="display:inline;fill:#efb5e3;fill-opacity:1;fill-rule:evenodd;stroke:#333333;stroke-width:4.21448183;stroke-linecap:round;stroke-linejoin:round;stroke-miterlimit:4;stroke-dasharray:none;stroke-dashoffset:6.5999999;stroke-opacity:1"/><path d="m 257.83155,1381.6166 c 1.65231,6.0465 0.68641,11.0479 -0.61012,16.0948" id="path10932" style="opacity:1;fill:none;fill-opacity:0;fill-rule:evenodd;stroke:#ffffff;stroke-width:2.80965424;stroke-linecap:round;stroke-linejoin:round;stroke-miterlimit:4;stroke-dasharray:none;stroke-dashoffset:0;stroke-opacity:1"/><ellipse cx="386.07745" cy="1344.3225" id="ellipse10934" rx="1.6825458" ry="1.6826104" style="fill:#ffffff;fill-opacity:1;fill-rule:evenodd;stroke:#ffffff;stroke-width:0.46827573px;stroke-linecap:butt;stroke-linejoin:miter;stroke-opacity:1" transform="rotate(5.4689904)"/><g clip-path="url(#clipPath11046)" id="g11042" transform="translate(0,4.1501029)"><g id="g10926" style="stroke-width:6.81298685;stroke-miterlimit:4;stroke-dasharray:none" transform="matrix(0.60573213,0,0,0.60519052,43.689961,379.85228)"><g id="g10876" style="stroke-width:6.81298685;stroke-miterlimit:4;stroke-dasharray:none"><ellipse cx="256.56125" cy="1695.2845" id="circle10596" rx="23.015045" ry="23.13965" style="fill:#cd87de;fill-opacity:1;fill-rule:evenodd;stroke:#333333;stroke-width:6.81298685;stroke-linecap:round;stroke-linejoin:round;stroke-miterlimit:4;stroke-dasharray:none;stroke-opacity:1"/><path d="m 262.27614,1676.4011 c -9.09258,-2.6728 -17.78532,0.6986 -22.62793,8.9067 -5.01771,8.5265 -3.11628,18.3648 4.19785,24.768 12.75671,-4.5123 24.43877,-17.1649 18.43008,-33.6747 z" id="path10860" style="opacity:1;vector-effect:none;fill:#b567ca;fill-opacity:1;fill-rule:evenodd;stroke:none;stroke-width:6.81298685;stroke-linecap:round;stroke-linejoin:round;stroke-miterlimit:4;stroke-dasharray:none;stroke-dashoffset:0;stroke-opacity:1"/></g><ellipse cx="295.39084" cy="1695.646" id="circle10606" rx="23.015045" ry="23.13965" style="fill:#cd87de;fill-opacity:1;fill-rule:evenodd;stroke:#333333;stroke-width:6.81298685;stroke-linecap:round;stroke-linejoin:round;stroke-miterlimit:4;stroke-dasharray:none;stroke-opacity:1"/></g><g id="g10942" style="stroke-width:4.43493652;stroke-miterlimit:4;stroke-dasharray:none" transform="matrix(0.93053088,0,0,0.92969885,10.525121,97.866536)"><path d="m 212.05913,1389.3903 c 10.53967,-2.4861 13.32721,-5.4122 13.34099,-5.5346 l -0.37091,-0.6263 c -4.0795,2.6816 -8.37355,4.4581 -12.61433,4.9836 z" id="path10831" style="fill:#8dd35f;fill-opacity:1;fill-rule:evenodd;stroke:#333333;stroke-width:4.43493652;stroke-linecap:round;stroke-linejoin:round;stroke-miterlimit:4;stroke-dasharray:none;stroke-dashoffset:0;stroke-opacity:1"/><path d="m 251.4775,1362.3377 c -6.78188,0.4923 -14.36895,-3.454 -20.25745,3.9054 -0.11107,-2.6459 -0.80156,-5.7398 0.74504,-7.689 -10.20835,0.137 -9.44818,7.9439 -10.67392,12.8327 -1.85391,-1.1507 -2.56513,-2.7444 -2.27159,-4.7289 -5.29559,4.5554 -1.4956,11.4544 4.38685,16.9932 3.68896,7.2042 9.2491,12.7668 15.05605,8.8923 -1.97874,-0.2592 -3.3088,-1.383 -3.90224,-3.4907 5.0123,0.1525 12.2727,3.0239 15.1973,-6.8105 -2.28797,0.9622 -5.05883,-0.5521 -7.5596,-1.3836 8.65176,-3.6805 6.95254,-12.0975 9.27956,-18.5209 z" id="path10772" style="fill:#8dd35f;fill-rule:evenodd;stroke:#333333;stroke-width:3.99767613;stroke-linecap:round;stroke-linejoin:round;stroke-miterlimit:4;stroke-dasharray:none;stroke-opacity:1"/></g><path d="m 212.86598,1406.2795 c 1.19295,-23.8992 -9.31767,-30.4973 -9.88411,-30.543 l -3.44851,0.7538 c 7.74264,9.4605 10.90066,19.2909 8.1547,28.849 z" id="path10618" style="fill:#a05a2c;fill-opacity:1;fill-rule:evenodd;stroke:#333333;stroke-width:4.125;stroke-linecap:round;stroke-linejoin:round;stroke-miterlimit:4;stroke-dasharray:none;stroke-dashoffset:0;stroke-opacity:1"/><g id="g10920" style="stroke-width:6.81298685;stroke-miterlimit:4;stroke-dasharray:none" transform="matrix(0.60573213,0,0,0.60519052,43.689961,379.85228)"><g id="g10884" style="stroke-width:6.81298685;stroke-miterlimit:4;stroke-dasharray:none"><ellipse cx="275.74323" cy="1775.4575" id="circle10733" rx="23.015045" ry="23.13965" style="fill:#cd87de;fill-opacity:1;fill-rule:evenodd;stroke:#333333;stroke-width:6.81298685;stroke-linecap:round;stroke-linejoin:round;stroke-miterlimit:4;stroke-dasharray:none;stroke-opacity:1"/><path d="m 270.4311,1755.0644 c -9.27717,2.4743 -15.66971,10.8731 -15.67348,20.4033 0.007,9.8933 7.19329,17.1855 16.93393,19.3069 8.69835,-10.365 12.29947,-28.5385 -1.26045,-39.7102 z" id="path10864" style="opacity:1;vector-effect:none;fill:#b567ca;fill-opacity:1;fill-rule:evenodd;stroke:none;stroke-width:6.81298685;stroke-linecap:round;stroke-linejoin:round;stroke-miterlimit:4;stroke-dasharray:none;stroke-dashoffset:0;stroke-opacity:1"/></g><g id="g10880" style="stroke-width:6.81298685;stroke-miterlimit:4;stroke-dasharray:none"><ellipse cx="257.04749" cy="1746.1777" id="circle10729" rx="23.015045" ry="23.13965" style="fill:#cd87de;fill-opacity:1;fill-rule:evenodd;stroke:#333333;stroke-width:6.81298685;stroke-linecap:round;stroke-linejoin:round;stroke-miterlimit:4;stroke-dasharray:none;stroke-opacity:1"/><path d="m 251.71561,1725.757 c -9.27717,2.4743 -15.66971,10.8731 -15.67348,20.4033 0.007,9.8933 7.39849,17.254 17.13913,19.3754 8.69835,-10.365 12.09427,-28.607 -1.46565,-39.7787 z" id="path10862" style="opacity:1;vector-effect:none;fill:#b567ca;fill-opacity:1;fill-rule:evenodd;stroke:none;stroke-width:6.81298685;stroke-linecap:round;stroke-linejoin:round;stroke-miterlimit:4;stroke-dasharray:none;stroke-dashoffset:0;stroke-opacity:1"/></g><ellipse cx="296.95569" cy="1745.8162" id="circle10731" rx="23.015045" ry="23.13965" style="fill:#cd87de;fill-opacity:1;fill-rule:evenodd;stroke:#333333;stroke-width:6.81298685;stroke-linecap:round;stroke-linejoin:round;stroke-miterlimit:4;stroke-dasharray:none;stroke-opacity:1"/><ellipse cx="309.17984" cy="1713.283" id="circle10727" rx="23.015045" ry="23.13965" style="fill:#cd87de;fill-opacity:1;fill-rule:evenodd;stroke:#333333;stroke-width:6.81298685;stroke-linecap:round;stroke-linejoin:round;stroke-miterlimit:4;stroke-dasharray:none;stroke-opacity:1"/><g id="g10872" style="stroke-width:6.81298685;stroke-miterlimit:4;stroke-dasharray:none"><ellipse cx="241.07062" cy="1714.7126" id="circle10586" rx="23.015045" ry="23.13965" style="fill:#cd87de;fill-opacity:1;fill-rule:evenodd;stroke:#333333;stroke-width:6.81298685;stroke-linecap:round;stroke-linejoin:round;stroke-miterlimit:4;stroke-dasharray:none;stroke-opacity:1"/><path d="m 236.03674,1695.637 c -8.68571,2.2913 -14.65861,10.2446 -14.66213,19.0702 0.007,9.1617 6.4166,17.3306 15.53623,19.2952 8.14379,-9.5986 11.82132,-28.0198 -0.8741,-38.3654 z" id="path10858" style="opacity:1;vector-effect:none;fill:#b567ca;fill-opacity:1;fill-rule:evenodd;stroke:none;stroke-width:6.34383869;stroke-linecap:round;stroke-linejoin:round;stroke-miterlimit:4;stroke-dasharray:none;stroke-dashoffset:0;stroke-opacity:1"/></g><g id="g10868" style="stroke-width:6.81298685;stroke-miterlimit:4;stroke-dasharray:none"><ellipse cx="274.66464" cy="1712.1986" id="circle10598" rx="23.015045" ry="23.13965" style="fill:#cd87de;fill-opacity:1;fill-rule:evenodd;stroke:#333333;stroke-width:6.81298685;stroke-linecap:round;stroke-linejoin:round;stroke-miterlimit:4;stroke-dasharray:none;stroke-opacity:1"/><path d="m 270.34435,1692.9421 c -9.20744,2.23 -15.28901,9.7902 -15.29278,19.3204 0.007,9.8933 6.97284,17.6937 15.85848,19.3016 7.95771,-16.1706 8.83873,-30.3298 -0.5657,-38.622 z" id="path10849" style="opacity:1;vector-effect:none;fill:#b567ca;fill-opacity:1;fill-rule:evenodd;stroke:none;stroke-width:6.81298685;stroke-linecap:round;stroke-linejoin:round;stroke-miterlimit:4;stroke-dasharray:none;stroke-dashoffset:0;stroke-opacity:1"/></g></g></g><path d="m 163.96494,1366.6571 c 0.0371,0.023 3.19764,-11.8609 19.45002,-20.2782 7.24571,-3.7379 16.25639,-6.0739 26.24495,-5.8102 0.12325,0 0.24638,0.01 0.36939,0.011 10.20392,0.3289 19.27236,3.2296 26.47851,7.0984 7.38317,3.9594 12.45666,8.7569 15.5429,12.4751 3.09292,3.7262 4.1926,6.2834 3.88811,6.504 -0.39823,0.2885 -2.16586,-1.767 -5.61357,-4.845 -3.46496,-3.0934 -8.58802,-7.1296 -15.66481,-10.4795 -6.90524,-3.2647 -15.36887,-5.7277 -24.78162,-6.0229 -0.11343,0 -0.22697,-0.01 -0.3406,-0.01 -9.20428,-0.23 -17.49728,1.6828 -24.30735,4.8014 -7.21896,3.2897 -12.43413,7.8367 -15.77649,11.1732 -3.38962,3.3838 -5.05743,5.6538 -5.48944,5.3823 z" id="path10936" style="opacity:1;fill:#ffffff;fill-opacity:1;fill-rule:evenodd;stroke:none;stroke-width:9.46501446;stroke-linecap:round;stroke-linejoin:round;stroke-miterlimit:4;stroke-dasharray:none;stroke-dashoffset:0;stroke-opacity:1"/></g><path d="m -117.87806,1997.5793 c -6.2149,-3.1222 -11.03008,0.6002 -12.65546,3.22" id="path11379" style="opacity:1;fill:none;fill-opacity:1;fill-rule:evenodd;stroke:#ffffff;stroke-width:1.59374988;stroke-linecap:round;stroke-linejoin:round;stroke-miterlimit:4;stroke-dasharray:none;stroke-dashoffset:0;stroke-opacity:1"/><ellipse cx="-1609.3911" cy="-1190.5144" id="ellipse11381" rx="0.90988719" ry="0.90992212" style="fill:#ffffff;fill-opacity:1;fill-rule:evenodd;stroke:none;stroke-width:0.29062617px;stroke-linecap:butt;stroke-linejoin:miter;stroke-opacity:1" transform="matrix(0.6399742,-0.7683964,-0.7683964,-0.6399742,0,0)"/><path d="m -138.21009,1998.7512 c -6.2149,-3.1222 -11.03008,0.6002 -12.65546,3.22" id="path11387" style="opacity:1;fill:none;fill-opacity:1;fill-rule:evenodd;stroke:#ffffff;stroke-width:1.59374988;stroke-linecap:round;stroke-linejoin:round;stroke-miterlimit:4;stroke-dasharray:none;stroke-dashoffset:0;stroke-opacity:1"/></g></g></svg>